<?xml version="1.0" encoding="UTF-8" standalone="no"?>
<!-- Created with Inkscape (http://www.inkscape.org/) -->

<svg
   xmlns:dc="http://purl.org/dc/elements/1.1/"
   xmlns:cc="http://creativecommons.org/ns#"
   xmlns:rdf="http://www.w3.org/1999/02/22-rdf-syntax-ns#"
   xmlns:svg="http://www.w3.org/2000/svg"
   xmlns="http://www.w3.org/2000/svg"
   xmlns:sodipodi="http://sodipodi.sourceforge.net/DTD/sodipodi-0.dtd"
   xmlns:inkscape="http://www.inkscape.org/namespaces/inkscape"
   width="24"
   height="24"
   viewBox="0 0 24.000001 24.000001"
   id="svg2"
   version="1.1"
   inkscape:version="0.91 r13725"
   sodipodi:docname="logo.svg">
  <defs
     id="defs4" />
  <sodipodi:namedview
     id="base"
     pagecolor="#ffffff"
     bordercolor="#666666"
     borderopacity="1.0"
     inkscape:pageopacity="0.0"
     inkscape:pageshadow="2"
     inkscape:zoom="15.839192"
     inkscape:cx="13.200306"
     inkscape:cy="16.616645"
     inkscape:document-units="px"
     inkscape:current-layer="layer1"
     showgrid="false"
     units="px"
     inkscape:window-width="1920"
     inkscape:window-height="1017"
     inkscape:window-x="-8"
     inkscape:window-y="-8"
     inkscape:window-maximized="1" />
  <metadata
     id="metadata7">
    <rdf:RDF>
      <cc:Work
         rdf:about="">
        <dc:format>image/svg+xml</dc:format>
        <dc:type
           rdf:resource="http://purl.org/dc/dcmitype/StillImage" />
        <dc:title></dc:title>
      </cc:Work>
    </rdf:RDF>
  </metadata>
  <g
     inkscape:label="Layer 1"
     inkscape:groupmode="layer"
     id="layer1"
     transform="translate(0,-1028.3622)">
    <g
       transform="matrix(0.86071178,0,0,1.1618291,-0.18940357,-0.56821087)"
       style="font-style:normal;font-variant:normal;font-weight:normal;font-stretch:normal;font-size:52.28544617px;line-height:125%;font-family:'Freestyle Script';-inkscape-font-specification:'Freestyle Script';letter-spacing:0px;word-spacing:0px;fill:#ad91c2;fill-opacity:1;stroke:none;stroke-width:1px;stroke-linecap:butt;stroke-linejoin:miter;stroke-opacity:1"
       id="text3348">
      <path
         d="m 9.584454,894.18393 q 2.14452,-2.24664 3.77844,-3.52314 2.476411,-1.91475 3.318901,-1.91475 0.40848,0 0.71484,0.30636 0.28083,0.28083 0.28083,0.61272 0,0.48507 -0.89355,1.58286 -1.37862,1.73604 -1.91475,2.96148 5.97402,-5.99955 8.169601,-5.99955 0.45954,0 0.79143,0.28083 0.35742,0.30636 0.35742,0.7659 0,0.71484 -1.09779,1.83816 -4.825171,4.97835 -4.825171,8.1696 0,1.30203 0.45954,1.86369 l 0.66378,0.84249 q 0.20424,0.22977 0.20424,0.58719 0,0.40848 -0.33189,0.7659 -0.38295,0.40848 -0.86802,0.40848 -0.84249,0 -1.55733,-1.07226 -0.86802,-1.2765 -0.86802,-3.01254 0,-2.32323 1.32756,-4.69752 0.45954,-0.84249 1.5318,-2.24664 -2.17005,1.63392 -4.41669,4.49328 -1.531801,1.94028 -2.757241,4.3401 -0.58719,1.14885 -1.37862,1.14885 -0.86802,0 -0.86802,-0.97014 0,-1.04673 1.42968,-4.31457 0.81696,-1.86369 2.01687,-3.93162 -4.3656301,3.36996 -6.5612104,9.13974 -0.5361301,1.2765 -1.4296802,1.2765 -0.40848,0 -0.6637801,-0.30636 -0.28083,-0.30636 -0.28083,-0.74037 0,-1.50627 1.6849802,-5.43789 1.7615702,-4.16139 3.9826805,-7.48029 1.5318,-2.32323 2.37429,-2.32323 0.7659,0 0.7659,0.81696 0,0.35742 -0.94461,1.7871 -1.65945,2.68065 -2.19558,3.98268 z"
         style="fill:#ad91c2;fill-opacity:1"
         id="path3353"
         inkscape:connector-curvature="0" />
    </g>
    <g
       id="g4145"
       style="font-style:normal;font-variant:normal;font-weight:normal;font-stretch:normal;font-size:52.28544617px;line-height:125%;font-family:'Freestyle Script';-inkscape-font-specification:'Freestyle Script';letter-spacing:0px;word-spacing:0px;fill:#ad91c2;fill-opacity:1;stroke:none;stroke-width:1px;stroke-linecap:butt;stroke-linejoin:miter;stroke-opacity:1"
       transform="matrix(0.86071178,0,0,1.1618291,-0.18940357,-0.56821087)">
      <path
         inkscape:connector-curvature="0"
         id="path4147"
         style="fill:#ad91c2;fill-opacity:1"
         d="m 9.584454,894.18393 q 2.14452,-2.24664 3.77844,-3.52314 2.476411,-1.91475 3.318901,-1.91475 0.40848,0 0.71484,0.30636 0.28083,0.28083 0.28083,0.61272 0,0.48507 -0.89355,1.58286 -1.37862,1.73604 -1.91475,2.96148 5.97402,-5.99955 8.169601,-5.99955 0.45954,0 0.79143,0.28083 0.35742,0.30636 0.35742,0.7659 0,0.71484 -1.09779,1.83816 -4.825171,4.97835 -4.825171,8.1696 0,1.30203 0.45954,1.86369 l 0.66378,0.84249 q 0.20424,0.22977 0.20424,0.58719 0,0.40848 -0.33189,0.7659 -0.38295,0.40848 -0.86802,0.40848 -0.84249,0 -1.55733,-1.07226 -0.86802,-1.2765 -0.86802,-3.01254 0,-2.32323 1.32756,-4.69752 0.45954,-0.84249 1.5318,-2.24664 -2.17005,1.63392 -4.41669,4.49328 -1.531801,1.94028 -2.757241,4.3401 -0.58719,1.14885 -1.37862,1.14885 -0.86802,0 -0.86802,-0.97014 0,-1.04673 1.42968,-4.31457 0.81696,-1.86369 2.01687,-3.93162 -4.3656301,3.36996 -6.5612104,9.13974 -0.5361301,1.2765 -1.4296802,1.2765 -0.40848,0 -0.6637801,-0.30636 -0.28083,-0.30636 -0.28083,-0.74037 0,-1.50627 1.6849802,-5.43789 1.7615702,-4.16139 3.9826805,-7.48029 1.5318,-2.32323 2.37429,-2.32323 0.7659,0 0.7659,0.81696 0,0.35742 -0.94461,1.7871 -1.65945,2.68065 -2.19558,3.98268 z" />
    </g>
  </g>
</svg>
